<mxfile modified="2024-05-28T10:09:24.716Z" host="app.diagrams.net" agent="Mozilla/5.0 (Windows NT 10.0; Win64; x64) AppleWebKit/537.36 (KHTML, like Gecko) Chrome/125.0.0.0 Safari/537.36" etag="Ft4kOJtmaeFwQs24pD5Y" version="23.1.2" type="github">
  <diagram id="Ht1M8jgEwFfnCIfOTk4-" name="Page-1">
    <mxGraphModel dx="2311" dy="909" grid="1" gridSize="10" guides="1" tooltips="1" connect="1" arrows="1" fold="1" page="1" pageScale="1" pageWidth="827" pageHeight="1169" math="0" shadow="0">
      <root>
        <mxCell id="0" />
        <mxCell id="1" parent="0" />
        <mxCell id="3f8T3pzvuwBVUEeWGXju-29" value="a" style="points=[[0,0],[0.25,0],[0.5,0],[0.75,0],[1,0],[1,0.25],[1,0.5],[1,0.75],[1,1],[0.75,1],[0.5,1],[0.25,1],[0,1],[0,0.75],[0,0.5],[0,0.25]];outlineConnect=0;gradientColor=none;html=1;whiteSpace=wrap;fontSize=12;fontStyle=0;container=1;pointerEvents=0;collapsible=0;recursiveResize=0;shape=mxgraph.aws4.group;grIcon=mxgraph.aws4.group_region;strokeColor=#00A4A6;fillColor=none;verticalAlign=top;align=left;spacingLeft=30;fontColor=#147EBA;dashed=1;" vertex="1" parent="1">
          <mxGeometry x="56" y="294" width="1080" height="700" as="geometry" />
        </mxCell>
        <mxCell id="jZVaUwOg5UY3L9NAnvdq-71" value="AWS Cloud" style="points=[[0,0],[0.25,0],[0.5,0],[0.75,0],[1,0],[1,0.25],[1,0.5],[1,0.75],[1,1],[0.75,1],[0.5,1],[0.25,1],[0,1],[0,0.75],[0,0.5],[0,0.25]];outlineConnect=0;gradientColor=none;html=1;whiteSpace=wrap;fontSize=12;fontStyle=0;shape=mxgraph.aws4.group;grIcon=mxgraph.aws4.group_aws_cloud_alt;strokeColor=#232F3E;fillColor=none;verticalAlign=top;align=left;spacingLeft=30;fontColor=#232F3E;dashed=0;labelBackgroundColor=none;container=1;pointerEvents=0;collapsible=0;recursiveResize=0;" parent="1" vertex="1">
          <mxGeometry x="40" y="267" width="1400" height="803" as="geometry" />
        </mxCell>
        <mxCell id="3f8T3pzvuwBVUEeWGXju-167" value="Security group" style="fillColor=none;strokeColor=#DD3522;verticalAlign=top;fontStyle=0;fontColor=#DD3522;whiteSpace=wrap;html=1;" vertex="1" parent="jZVaUwOg5UY3L9NAnvdq-71">
          <mxGeometry x="1186" y="508" width="154" height="158" as="geometry" />
        </mxCell>
        <mxCell id="3f8T3pzvuwBVUEeWGXju-30" value="App VPC" style="points=[[0,0],[0.25,0],[0.5,0],[0.75,0],[1,0],[1,0.25],[1,0.5],[1,0.75],[1,1],[0.75,1],[0.5,1],[0.25,1],[0,1],[0,0.75],[0,0.5],[0,0.25]];outlineConnect=0;gradientColor=none;html=1;whiteSpace=wrap;fontSize=12;fontStyle=0;container=1;pointerEvents=0;collapsible=0;recursiveResize=0;shape=mxgraph.aws4.group;grIcon=mxgraph.aws4.group_vpc2;strokeColor=#8C4FFF;fillColor=none;verticalAlign=top;align=left;spacingLeft=30;fontColor=#AAB7B8;dashed=0;" vertex="1" parent="jZVaUwOg5UY3L9NAnvdq-71">
          <mxGeometry x="27" y="50" width="638" height="670" as="geometry" />
        </mxCell>
        <mxCell id="3f8T3pzvuwBVUEeWGXju-33" value="Availability Zone" style="fillColor=none;strokeColor=#147EBA;dashed=1;verticalAlign=top;fontStyle=0;fontColor=#147EBA;whiteSpace=wrap;html=1;" vertex="1" parent="3f8T3pzvuwBVUEeWGXju-30">
          <mxGeometry x="293.75" y="47.5" width="253" height="555" as="geometry" />
        </mxCell>
        <mxCell id="3f8T3pzvuwBVUEeWGXju-32" value="Availability Zone" style="fillColor=none;strokeColor=#147EBA;dashed=1;verticalAlign=top;fontStyle=0;fontColor=#147EBA;whiteSpace=wrap;html=1;" vertex="1" parent="3f8T3pzvuwBVUEeWGXju-30">
          <mxGeometry x="20" y="46.5" width="253" height="555" as="geometry" />
        </mxCell>
        <mxCell id="3f8T3pzvuwBVUEeWGXju-35" value="Public subnet" style="points=[[0,0],[0.25,0],[0.5,0],[0.75,0],[1,0],[1,0.25],[1,0.5],[1,0.75],[1,1],[0.75,1],[0.5,1],[0.25,1],[0,1],[0,0.75],[0,0.5],[0,0.25]];outlineConnect=0;gradientColor=none;html=1;whiteSpace=wrap;fontSize=12;fontStyle=0;container=1;pointerEvents=0;collapsible=0;recursiveResize=0;shape=mxgraph.aws4.group;grIcon=mxgraph.aws4.group_security_group;grStroke=0;strokeColor=#7AA116;fillColor=#F2F6E8;verticalAlign=top;align=left;spacingLeft=30;fontColor=#248814;dashed=0;" vertex="1" parent="3f8T3pzvuwBVUEeWGXju-30">
          <mxGeometry x="318.5" y="78" width="200" height="239.5" as="geometry" />
        </mxCell>
        <mxCell id="3f8T3pzvuwBVUEeWGXju-49" value="" style="sketch=0;outlineConnect=0;fontColor=#232F3E;gradientColor=none;fillColor=#8C4FFF;strokeColor=none;dashed=0;verticalLabelPosition=bottom;verticalAlign=top;align=center;html=1;fontSize=12;fontStyle=0;aspect=fixed;pointerEvents=1;shape=mxgraph.aws4.nat_gateway;" vertex="1" parent="3f8T3pzvuwBVUEeWGXju-35">
          <mxGeometry x="63.5" y="85.5" width="78" height="78" as="geometry" />
        </mxCell>
        <mxCell id="3f8T3pzvuwBVUEeWGXju-34" value="Public subnet" style="points=[[0,0],[0.25,0],[0.5,0],[0.75,0],[1,0],[1,0.25],[1,0.5],[1,0.75],[1,1],[0.75,1],[0.5,1],[0.25,1],[0,1],[0,0.75],[0,0.5],[0,0.25]];outlineConnect=0;gradientColor=none;html=1;whiteSpace=wrap;fontSize=12;fontStyle=0;container=1;pointerEvents=0;collapsible=0;recursiveResize=0;shape=mxgraph.aws4.group;grIcon=mxgraph.aws4.group_security_group;grStroke=0;strokeColor=#7AA116;fillColor=#F2F6E8;verticalAlign=top;align=left;spacingLeft=30;fontColor=#248814;dashed=0;" vertex="1" parent="3f8T3pzvuwBVUEeWGXju-30">
          <mxGeometry x="46.5" y="78" width="200" height="239.5" as="geometry" />
        </mxCell>
        <mxCell id="3f8T3pzvuwBVUEeWGXju-46" value="" style="sketch=0;outlineConnect=0;fontColor=#232F3E;gradientColor=none;fillColor=#8C4FFF;strokeColor=none;dashed=0;verticalLabelPosition=bottom;verticalAlign=top;align=center;html=1;fontSize=12;fontStyle=0;aspect=fixed;pointerEvents=1;shape=mxgraph.aws4.network_access_control_list;" vertex="1" parent="3f8T3pzvuwBVUEeWGXju-34">
          <mxGeometry x="162" width="38" height="38" as="geometry" />
        </mxCell>
        <mxCell id="3f8T3pzvuwBVUEeWGXju-48" value="" style="sketch=0;outlineConnect=0;fontColor=#232F3E;gradientColor=none;fillColor=#8C4FFF;strokeColor=none;dashed=0;verticalLabelPosition=bottom;verticalAlign=top;align=center;html=1;fontSize=12;fontStyle=0;aspect=fixed;pointerEvents=1;shape=mxgraph.aws4.nat_gateway;" vertex="1" parent="3f8T3pzvuwBVUEeWGXju-34">
          <mxGeometry x="53.5" y="89.5" width="86.5" height="86.5" as="geometry" />
        </mxCell>
        <mxCell id="3f8T3pzvuwBVUEeWGXju-37" value="Private subnet" style="points=[[0,0],[0.25,0],[0.5,0],[0.75,0],[1,0],[1,0.25],[1,0.5],[1,0.75],[1,1],[0.75,1],[0.5,1],[0.25,1],[0,1],[0,0.75],[0,0.5],[0,0.25]];outlineConnect=0;gradientColor=none;html=1;whiteSpace=wrap;fontSize=12;fontStyle=0;container=1;pointerEvents=0;collapsible=0;recursiveResize=0;shape=mxgraph.aws4.group;grIcon=mxgraph.aws4.group_security_group;grStroke=0;strokeColor=#00A4A6;fillColor=#E6F6F7;verticalAlign=top;align=left;spacingLeft=30;fontColor=#147EBA;dashed=0;" vertex="1" parent="3f8T3pzvuwBVUEeWGXju-30">
          <mxGeometry x="50" y="335.5" width="196.5" height="244" as="geometry" />
        </mxCell>
        <mxCell id="3f8T3pzvuwBVUEeWGXju-40" value="" style="sketch=0;points=[[0,0,0],[0.25,0,0],[0.5,0,0],[0.75,0,0],[1,0,0],[0,1,0],[0.25,1,0],[0.5,1,0],[0.75,1,0],[1,1,0],[0,0.25,0],[0,0.5,0],[0,0.75,0],[1,0.25,0],[1,0.5,0],[1,0.75,0]];outlineConnect=0;fontColor=#232F3E;fillColor=#ED7100;strokeColor=#ffffff;dashed=0;verticalLabelPosition=bottom;verticalAlign=top;align=center;html=1;fontSize=12;fontStyle=0;aspect=fixed;shape=mxgraph.aws4.resourceIcon;resIcon=mxgraph.aws4.eks;" vertex="1" parent="3f8T3pzvuwBVUEeWGXju-37">
          <mxGeometry x="58" y="72" width="78" height="78" as="geometry" />
        </mxCell>
        <mxCell id="3f8T3pzvuwBVUEeWGXju-45" value="" style="sketch=0;outlineConnect=0;fontColor=#232F3E;gradientColor=none;fillColor=#8C4FFF;strokeColor=none;dashed=0;verticalLabelPosition=bottom;verticalAlign=top;align=center;html=1;fontSize=12;fontStyle=0;aspect=fixed;pointerEvents=1;shape=mxgraph.aws4.network_access_control_list;" vertex="1" parent="3f8T3pzvuwBVUEeWGXju-37">
          <mxGeometry x="158.5" y="23" width="38" height="38" as="geometry" />
        </mxCell>
        <mxCell id="3f8T3pzvuwBVUEeWGXju-39" value="Private subnet" style="points=[[0,0],[0.25,0],[0.5,0],[0.75,0],[1,0],[1,0.25],[1,0.5],[1,0.75],[1,1],[0.75,1],[0.5,1],[0.25,1],[0,1],[0,0.75],[0,0.5],[0,0.25]];outlineConnect=0;gradientColor=none;html=1;whiteSpace=wrap;fontSize=12;fontStyle=0;container=1;pointerEvents=0;collapsible=0;recursiveResize=0;shape=mxgraph.aws4.group;grIcon=mxgraph.aws4.group_security_group;grStroke=0;strokeColor=#00A4A6;fillColor=#E6F6F7;verticalAlign=top;align=left;spacingLeft=30;fontColor=#147EBA;dashed=0;" vertex="1" parent="3f8T3pzvuwBVUEeWGXju-30">
          <mxGeometry x="322" y="337.5" width="196.5" height="244" as="geometry" />
        </mxCell>
        <mxCell id="3f8T3pzvuwBVUEeWGXju-41" value="" style="sketch=0;points=[[0,0,0],[0.25,0,0],[0.5,0,0],[0.75,0,0],[1,0,0],[0,1,0],[0.25,1,0],[0.5,1,0],[0.75,1,0],[1,1,0],[0,0.25,0],[0,0.5,0],[0,0.75,0],[1,0.25,0],[1,0.5,0],[1,0.75,0]];outlineConnect=0;fontColor=#232F3E;fillColor=#ED7100;strokeColor=#ffffff;dashed=0;verticalLabelPosition=bottom;verticalAlign=top;align=center;html=1;fontSize=12;fontStyle=0;aspect=fixed;shape=mxgraph.aws4.resourceIcon;resIcon=mxgraph.aws4.eks;" vertex="1" parent="3f8T3pzvuwBVUEeWGXju-39">
          <mxGeometry x="58" y="70" width="78" height="78" as="geometry" />
        </mxCell>
        <mxCell id="3f8T3pzvuwBVUEeWGXju-47" value="" style="sketch=0;outlineConnect=0;fontColor=#232F3E;gradientColor=none;fillColor=#8C4FFF;strokeColor=none;dashed=0;verticalLabelPosition=bottom;verticalAlign=top;align=center;html=1;fontSize=12;fontStyle=0;aspect=fixed;pointerEvents=1;shape=mxgraph.aws4.network_access_control_list;" vertex="1" parent="3f8T3pzvuwBVUEeWGXju-39">
          <mxGeometry x="158.5" y="-2" width="38" height="38" as="geometry" />
        </mxCell>
        <mxCell id="3f8T3pzvuwBVUEeWGXju-42" value="" style="sketch=0;outlineConnect=0;fontColor=#232F3E;gradientColor=none;fillColor=#8C4FFF;strokeColor=none;dashed=0;verticalLabelPosition=bottom;verticalAlign=top;align=center;html=1;fontSize=12;fontStyle=0;aspect=fixed;pointerEvents=1;shape=mxgraph.aws4.route_table;" vertex="1" parent="3f8T3pzvuwBVUEeWGXju-30">
          <mxGeometry x="530" y="297.5" width="78" height="76" as="geometry" />
        </mxCell>
        <mxCell id="3f8T3pzvuwBVUEeWGXju-56" style="edgeStyle=orthogonalEdgeStyle;rounded=0;orthogonalLoop=1;jettySize=auto;html=1;" edge="1" parent="3f8T3pzvuwBVUEeWGXju-30" source="3f8T3pzvuwBVUEeWGXju-43" target="3f8T3pzvuwBVUEeWGXju-55">
          <mxGeometry relative="1" as="geometry" />
        </mxCell>
        <mxCell id="3f8T3pzvuwBVUEeWGXju-43" value="" style="sketch=0;outlineConnect=0;fontColor=#232F3E;gradientColor=none;fillColor=#8C4FFF;strokeColor=none;dashed=0;verticalLabelPosition=bottom;verticalAlign=top;align=center;html=1;fontSize=12;fontStyle=0;aspect=fixed;pointerEvents=1;shape=mxgraph.aws4.internet_gateway;" vertex="1" parent="3f8T3pzvuwBVUEeWGXju-30">
          <mxGeometry x="260" y="-22.5" width="44" height="44" as="geometry" />
        </mxCell>
        <mxCell id="3f8T3pzvuwBVUEeWGXju-55" value="" style="sketch=0;outlineConnect=0;fontColor=#232F3E;gradientColor=none;fillColor=#8C4FFF;strokeColor=none;dashed=0;verticalLabelPosition=bottom;verticalAlign=top;align=center;html=1;fontSize=12;fontStyle=0;aspect=fixed;pointerEvents=1;shape=mxgraph.aws4.application_load_balancer;" vertex="1" parent="3f8T3pzvuwBVUEeWGXju-30">
          <mxGeometry x="257" y="28" width="50" height="50" as="geometry" />
        </mxCell>
        <mxCell id="3f8T3pzvuwBVUEeWGXju-57" style="edgeStyle=orthogonalEdgeStyle;rounded=0;orthogonalLoop=1;jettySize=auto;html=1;entryX=0.474;entryY=0.226;entryDx=0;entryDy=0;entryPerimeter=0;" edge="1" parent="3f8T3pzvuwBVUEeWGXju-30" source="3f8T3pzvuwBVUEeWGXju-55" target="3f8T3pzvuwBVUEeWGXju-32">
          <mxGeometry relative="1" as="geometry" />
        </mxCell>
        <mxCell id="3f8T3pzvuwBVUEeWGXju-58" style="edgeStyle=orthogonalEdgeStyle;rounded=0;orthogonalLoop=1;jettySize=auto;html=1;entryX=0.499;entryY=0.224;entryDx=0;entryDy=0;entryPerimeter=0;" edge="1" parent="3f8T3pzvuwBVUEeWGXju-30" source="3f8T3pzvuwBVUEeWGXju-55" target="3f8T3pzvuwBVUEeWGXju-33">
          <mxGeometry relative="1" as="geometry" />
        </mxCell>
        <mxCell id="3f8T3pzvuwBVUEeWGXju-59" style="edgeStyle=orthogonalEdgeStyle;rounded=0;orthogonalLoop=1;jettySize=auto;html=1;" edge="1" parent="3f8T3pzvuwBVUEeWGXju-30" source="3f8T3pzvuwBVUEeWGXju-48" target="3f8T3pzvuwBVUEeWGXju-37">
          <mxGeometry relative="1" as="geometry" />
        </mxCell>
        <mxCell id="3f8T3pzvuwBVUEeWGXju-60" style="edgeStyle=orthogonalEdgeStyle;rounded=0;orthogonalLoop=1;jettySize=auto;html=1;" edge="1" parent="3f8T3pzvuwBVUEeWGXju-30" source="3f8T3pzvuwBVUEeWGXju-49" target="3f8T3pzvuwBVUEeWGXju-39">
          <mxGeometry relative="1" as="geometry" />
        </mxCell>
        <mxCell id="3f8T3pzvuwBVUEeWGXju-65" value="" style="sketch=0;outlineConnect=0;fontColor=#232F3E;gradientColor=none;fillColor=#8C4FFF;strokeColor=none;dashed=0;verticalLabelPosition=bottom;verticalAlign=top;align=center;html=1;fontSize=12;fontStyle=0;aspect=fixed;pointerEvents=1;shape=mxgraph.aws4.peering;" vertex="1" parent="3f8T3pzvuwBVUEeWGXju-30">
          <mxGeometry x="600" y="541.5" width="38" height="38" as="geometry" />
        </mxCell>
        <mxCell id="3f8T3pzvuwBVUEeWGXju-95" style="edgeStyle=orthogonalEdgeStyle;rounded=0;orthogonalLoop=1;jettySize=auto;html=1;exitX=0.5;exitY=1;exitDx=0;exitDy=0;exitPerimeter=0;fillColor=#008a00;strokeColor=#005700;" edge="1" parent="3f8T3pzvuwBVUEeWGXju-30" source="3f8T3pzvuwBVUEeWGXju-40" target="3f8T3pzvuwBVUEeWGXju-65">
          <mxGeometry relative="1" as="geometry" />
        </mxCell>
        <mxCell id="3f8T3pzvuwBVUEeWGXju-133" value="App logs" style="edgeLabel;html=1;align=center;verticalAlign=middle;resizable=0;points=[];" vertex="1" connectable="0" parent="3f8T3pzvuwBVUEeWGXju-95">
          <mxGeometry x="-0.6648" y="-3" relative="1" as="geometry">
            <mxPoint as="offset" />
          </mxGeometry>
        </mxCell>
        <mxCell id="3f8T3pzvuwBVUEeWGXju-96" style="edgeStyle=orthogonalEdgeStyle;rounded=0;orthogonalLoop=1;jettySize=auto;html=1;fillColor=#008a00;strokeColor=#005700;" edge="1" parent="3f8T3pzvuwBVUEeWGXju-30" source="3f8T3pzvuwBVUEeWGXju-41" target="3f8T3pzvuwBVUEeWGXju-65">
          <mxGeometry relative="1" as="geometry" />
        </mxCell>
        <mxCell id="3f8T3pzvuwBVUEeWGXju-134" value="App logs" style="edgeLabel;html=1;align=center;verticalAlign=middle;resizable=0;points=[];" vertex="1" connectable="0" parent="3f8T3pzvuwBVUEeWGXju-96">
          <mxGeometry x="-0.5156" y="-3" relative="1" as="geometry">
            <mxPoint y="1" as="offset" />
          </mxGeometry>
        </mxCell>
        <mxCell id="3f8T3pzvuwBVUEeWGXju-120" style="edgeStyle=orthogonalEdgeStyle;rounded=0;orthogonalLoop=1;jettySize=auto;html=1;fillColor=#d80073;strokeColor=#A50040;" edge="1" parent="3f8T3pzvuwBVUEeWGXju-30" source="3f8T3pzvuwBVUEeWGXju-115" target="3f8T3pzvuwBVUEeWGXju-118">
          <mxGeometry relative="1" as="geometry" />
        </mxCell>
        <mxCell id="3f8T3pzvuwBVUEeWGXju-115" value="" style="sketch=0;points=[[0,0,0],[0.25,0,0],[0.5,0,0],[0.75,0,0],[1,0,0],[0,1,0],[0.25,1,0],[0.5,1,0],[0.75,1,0],[1,1,0],[0,0.25,0],[0,0.5,0],[0,0.75,0],[1,0.25,0],[1,0.5,0],[1,0.75,0]];points=[[0,0,0],[0.25,0,0],[0.5,0,0],[0.75,0,0],[1,0,0],[0,1,0],[0.25,1,0],[0.5,1,0],[0.75,1,0],[1,1,0],[0,0.25,0],[0,0.5,0],[0,0.75,0],[1,0.25,0],[1,0.5,0],[1,0.75,0]];outlineConnect=0;fontColor=#232F3E;fillColor=#E7157B;strokeColor=#ffffff;dashed=0;verticalLabelPosition=bottom;verticalAlign=top;align=center;html=1;fontSize=12;fontStyle=0;aspect=fixed;shape=mxgraph.aws4.resourceIcon;resIcon=mxgraph.aws4.cloudwatch_2;" vertex="1" parent="3f8T3pzvuwBVUEeWGXju-30">
          <mxGeometry x="586" y="22" width="52" height="52" as="geometry" />
        </mxCell>
        <mxCell id="3f8T3pzvuwBVUEeWGXju-121" style="edgeStyle=orthogonalEdgeStyle;rounded=0;orthogonalLoop=1;jettySize=auto;html=1;fillColor=#008a00;strokeColor=#005700;" edge="1" parent="3f8T3pzvuwBVUEeWGXju-30" source="3f8T3pzvuwBVUEeWGXju-118" target="3f8T3pzvuwBVUEeWGXju-65">
          <mxGeometry relative="1" as="geometry" />
        </mxCell>
        <mxCell id="3f8T3pzvuwBVUEeWGXju-135" value="Cloudwatch logs" style="edgeLabel;html=1;align=center;verticalAlign=middle;resizable=0;points=[];" vertex="1" connectable="0" parent="3f8T3pzvuwBVUEeWGXju-121">
          <mxGeometry x="-0.5394" y="-1" relative="1" as="geometry">
            <mxPoint x="1" as="offset" />
          </mxGeometry>
        </mxCell>
        <mxCell id="3f8T3pzvuwBVUEeWGXju-118" value="" style="sketch=0;outlineConnect=0;fontColor=#232F3E;gradientColor=none;fillColor=#E7157B;strokeColor=none;dashed=0;verticalLabelPosition=bottom;verticalAlign=top;align=center;html=1;fontSize=12;fontStyle=0;aspect=fixed;pointerEvents=1;shape=mxgraph.aws4.cloudwatch_logs;" vertex="1" parent="3f8T3pzvuwBVUEeWGXju-30">
          <mxGeometry x="586.9" y="132" width="51.1" height="38" as="geometry" />
        </mxCell>
        <mxCell id="3f8T3pzvuwBVUEeWGXju-186" style="edgeStyle=orthogonalEdgeStyle;rounded=0;orthogonalLoop=1;jettySize=auto;html=1;entryX=0.75;entryY=1;entryDx=0;entryDy=0;entryPerimeter=0;fillColor=#f8cecc;strokeColor=#b85450;" edge="1" parent="3f8T3pzvuwBVUEeWGXju-30" source="3f8T3pzvuwBVUEeWGXju-65" target="3f8T3pzvuwBVUEeWGXju-41">
          <mxGeometry relative="1" as="geometry" />
        </mxCell>
        <mxCell id="3f8T3pzvuwBVUEeWGXju-187" style="edgeStyle=orthogonalEdgeStyle;rounded=0;orthogonalLoop=1;jettySize=auto;html=1;entryX=0.25;entryY=1;entryDx=0;entryDy=0;entryPerimeter=0;fillColor=#f8cecc;strokeColor=#b85450;" edge="1" parent="3f8T3pzvuwBVUEeWGXju-30" source="3f8T3pzvuwBVUEeWGXju-65" target="3f8T3pzvuwBVUEeWGXju-40">
          <mxGeometry relative="1" as="geometry" />
        </mxCell>
        <mxCell id="3f8T3pzvuwBVUEeWGXju-44" value="" style="sketch=0;outlineConnect=0;fontColor=#232F3E;gradientColor=none;fillColor=#8C4FFF;strokeColor=none;dashed=0;verticalLabelPosition=bottom;verticalAlign=top;align=center;html=1;fontSize=12;fontStyle=0;aspect=fixed;pointerEvents=1;shape=mxgraph.aws4.network_access_control_list;" vertex="1" parent="jZVaUwOg5UY3L9NAnvdq-71">
          <mxGeometry x="507" y="131" width="38" height="38" as="geometry" />
        </mxCell>
        <mxCell id="3f8T3pzvuwBVUEeWGXju-63" value="Monitoring VPC" style="points=[[0,0],[0.25,0],[0.5,0],[0.75,0],[1,0],[1,0.25],[1,0.5],[1,0.75],[1,1],[0.75,1],[0.5,1],[0.25,1],[0,1],[0,0.75],[0,0.5],[0,0.25]];outlineConnect=0;gradientColor=none;html=1;whiteSpace=wrap;fontSize=12;fontStyle=0;container=1;pointerEvents=0;collapsible=0;recursiveResize=0;shape=mxgraph.aws4.group;grIcon=mxgraph.aws4.group_vpc2;strokeColor=#8C4FFF;fillColor=none;verticalAlign=top;align=left;spacingLeft=30;fontColor=#AAB7B8;dashed=0;" vertex="1" parent="jZVaUwOg5UY3L9NAnvdq-71">
          <mxGeometry x="697" y="48.5" width="393" height="661.5" as="geometry" />
        </mxCell>
        <mxCell id="3f8T3pzvuwBVUEeWGXju-85" style="edgeStyle=orthogonalEdgeStyle;rounded=0;orthogonalLoop=1;jettySize=auto;html=1;entryX=0.5;entryY=0;entryDx=0;entryDy=0;fillColor=#008a00;strokeColor=#005700;" edge="1" parent="3f8T3pzvuwBVUEeWGXju-63" source="3f8T3pzvuwBVUEeWGXju-76" target="3f8T3pzvuwBVUEeWGXju-77">
          <mxGeometry relative="1" as="geometry" />
        </mxCell>
        <mxCell id="3f8T3pzvuwBVUEeWGXju-210" style="edgeStyle=orthogonalEdgeStyle;rounded=0;orthogonalLoop=1;jettySize=auto;html=1;exitX=1;exitY=1;exitDx=0;exitDy=0;fillColor=#008a00;strokeColor=#005700;" edge="1" parent="3f8T3pzvuwBVUEeWGXju-63" source="3f8T3pzvuwBVUEeWGXju-76" target="3f8T3pzvuwBVUEeWGXju-98">
          <mxGeometry relative="1" as="geometry">
            <Array as="points">
              <mxPoint x="139" y="132" />
              <mxPoint x="139" y="155" />
              <mxPoint x="209" y="155" />
            </Array>
          </mxGeometry>
        </mxCell>
        <mxCell id="3f8T3pzvuwBVUEeWGXju-76" value="Logstash" style="points=[[0,0],[0.25,0],[0.5,0],[0.75,0],[1,0],[1,0.25],[1,0.5],[1,0.75],[1,1],[0.75,1],[0.5,1],[0.25,1],[0,1],[0,0.75],[0,0.5],[0,0.25]];outlineConnect=0;gradientColor=none;html=1;whiteSpace=wrap;fontSize=12;fontStyle=0;container=1;pointerEvents=0;collapsible=0;recursiveResize=0;shape=mxgraph.aws4.groupCenter;grIcon=mxgraph.aws4.group_auto_scaling_group;grStroke=1;strokeColor=#D86613;fillColor=none;verticalAlign=top;align=center;fontColor=#D86613;dashed=1;spacingTop=25;" vertex="1" parent="3f8T3pzvuwBVUEeWGXju-63">
          <mxGeometry x="40" y="23.5" width="113" height="108" as="geometry" />
        </mxCell>
        <mxCell id="3f8T3pzvuwBVUEeWGXju-73" value="" style="sketch=0;outlineConnect=0;fontColor=#232F3E;gradientColor=none;fillColor=#ED7100;strokeColor=none;dashed=0;verticalLabelPosition=bottom;verticalAlign=top;align=center;html=1;fontSize=12;fontStyle=0;aspect=fixed;pointerEvents=1;shape=mxgraph.aws4.instances;" vertex="1" parent="3f8T3pzvuwBVUEeWGXju-76">
          <mxGeometry x="40" y="48" width="48" height="48" as="geometry" />
        </mxCell>
        <mxCell id="3f8T3pzvuwBVUEeWGXju-88" style="edgeStyle=orthogonalEdgeStyle;rounded=0;orthogonalLoop=1;jettySize=auto;html=1;exitX=0.5;exitY=1;exitDx=0;exitDy=0;" edge="1" parent="3f8T3pzvuwBVUEeWGXju-63" source="3f8T3pzvuwBVUEeWGXju-77" target="3f8T3pzvuwBVUEeWGXju-86">
          <mxGeometry relative="1" as="geometry" />
        </mxCell>
        <mxCell id="3f8T3pzvuwBVUEeWGXju-77" value="Elasticsearch cluster" style="points=[[0,0],[0.25,0],[0.5,0],[0.75,0],[1,0],[1,0.25],[1,0.5],[1,0.75],[1,1],[0.75,1],[0.5,1],[0.25,1],[0,1],[0,0.75],[0,0.5],[0,0.25]];outlineConnect=0;gradientColor=none;html=1;whiteSpace=wrap;fontSize=12;fontStyle=0;container=1;pointerEvents=0;collapsible=0;recursiveResize=0;shape=mxgraph.aws4.groupCenter;grIcon=mxgraph.aws4.group_auto_scaling_group;grStroke=1;strokeColor=#D86613;fillColor=none;verticalAlign=top;align=center;fontColor=#D86613;dashed=1;spacingTop=25;" vertex="1" parent="3f8T3pzvuwBVUEeWGXju-63">
          <mxGeometry x="40" y="173.5" width="113" height="108" as="geometry" />
        </mxCell>
        <mxCell id="3f8T3pzvuwBVUEeWGXju-78" value="" style="sketch=0;outlineConnect=0;fontColor=#232F3E;gradientColor=none;fillColor=#ED7100;strokeColor=none;dashed=0;verticalLabelPosition=bottom;verticalAlign=top;align=center;html=1;fontSize=12;fontStyle=0;aspect=fixed;pointerEvents=1;shape=mxgraph.aws4.instances;" vertex="1" parent="3f8T3pzvuwBVUEeWGXju-77">
          <mxGeometry x="40" y="48" width="48" height="48" as="geometry" />
        </mxCell>
        <mxCell id="3f8T3pzvuwBVUEeWGXju-89" style="edgeStyle=orthogonalEdgeStyle;rounded=0;orthogonalLoop=1;jettySize=auto;html=1;exitX=0.5;exitY=0;exitDx=0;exitDy=0;entryX=0.5;entryY=1;entryDx=0;entryDy=0;fillColor=#008a00;strokeColor=#005700;" edge="1" parent="3f8T3pzvuwBVUEeWGXju-63" source="3f8T3pzvuwBVUEeWGXju-86" target="3f8T3pzvuwBVUEeWGXju-77">
          <mxGeometry relative="1" as="geometry" />
        </mxCell>
        <mxCell id="3f8T3pzvuwBVUEeWGXju-189" style="edgeStyle=orthogonalEdgeStyle;rounded=0;orthogonalLoop=1;jettySize=auto;html=1;exitX=1;exitY=0.5;exitDx=0;exitDy=0;" edge="1" parent="3f8T3pzvuwBVUEeWGXju-63" source="3f8T3pzvuwBVUEeWGXju-86" target="3f8T3pzvuwBVUEeWGXju-98">
          <mxGeometry relative="1" as="geometry" />
        </mxCell>
        <mxCell id="3f8T3pzvuwBVUEeWGXju-86" value="Kibana Dashboard" style="points=[[0,0],[0.25,0],[0.5,0],[0.75,0],[1,0],[1,0.25],[1,0.5],[1,0.75],[1,1],[0.75,1],[0.5,1],[0.25,1],[0,1],[0,0.75],[0,0.5],[0,0.25]];outlineConnect=0;gradientColor=none;html=1;whiteSpace=wrap;fontSize=12;fontStyle=0;container=1;pointerEvents=0;collapsible=0;recursiveResize=0;shape=mxgraph.aws4.groupCenter;grIcon=mxgraph.aws4.group_auto_scaling_group;grStroke=1;strokeColor=#D86613;fillColor=none;verticalAlign=top;align=center;fontColor=#D86613;dashed=1;spacingTop=25;" vertex="1" parent="3f8T3pzvuwBVUEeWGXju-63">
          <mxGeometry x="40" y="333.5" width="113" height="108" as="geometry" />
        </mxCell>
        <mxCell id="3f8T3pzvuwBVUEeWGXju-87" value="" style="sketch=0;outlineConnect=0;fontColor=#232F3E;gradientColor=none;fillColor=#ED7100;strokeColor=none;dashed=0;verticalLabelPosition=bottom;verticalAlign=top;align=center;html=1;fontSize=12;fontStyle=0;aspect=fixed;pointerEvents=1;shape=mxgraph.aws4.instances;" vertex="1" parent="3f8T3pzvuwBVUEeWGXju-86">
          <mxGeometry x="40" y="48" width="48" height="48" as="geometry" />
        </mxCell>
        <mxCell id="3f8T3pzvuwBVUEeWGXju-97" value="Grafana" style="sketch=0;outlineConnect=0;fontColor=#232F3E;gradientColor=none;fillColor=#ED7100;strokeColor=none;dashed=0;verticalLabelPosition=bottom;verticalAlign=top;align=center;html=1;fontSize=12;fontStyle=0;aspect=fixed;pointerEvents=1;shape=mxgraph.aws4.instance2;" vertex="1" parent="3f8T3pzvuwBVUEeWGXju-63">
          <mxGeometry x="290" y="203.5" width="48" height="48" as="geometry" />
        </mxCell>
        <mxCell id="3f8T3pzvuwBVUEeWGXju-108" style="edgeStyle=orthogonalEdgeStyle;rounded=0;orthogonalLoop=1;jettySize=auto;html=1;fillColor=#008a00;strokeColor=#005700;" edge="1" parent="3f8T3pzvuwBVUEeWGXju-63" source="3f8T3pzvuwBVUEeWGXju-98" target="3f8T3pzvuwBVUEeWGXju-97">
          <mxGeometry relative="1" as="geometry" />
        </mxCell>
        <mxCell id="3f8T3pzvuwBVUEeWGXju-98" value="Prometheus" style="sketch=0;outlineConnect=0;fontColor=#232F3E;gradientColor=none;fillColor=#ED7100;strokeColor=none;dashed=0;verticalLabelPosition=bottom;verticalAlign=top;align=center;html=1;fontSize=12;fontStyle=0;aspect=fixed;pointerEvents=1;shape=mxgraph.aws4.instance2;" vertex="1" parent="3f8T3pzvuwBVUEeWGXju-63">
          <mxGeometry x="190" y="203.5" width="48" height="48" as="geometry" />
        </mxCell>
        <mxCell id="3f8T3pzvuwBVUEeWGXju-70" value="d" style="sketch=0;outlineConnect=0;fontColor=#232F3E;gradientColor=none;fillColor=#8C4FFF;strokeColor=none;dashed=0;verticalLabelPosition=bottom;verticalAlign=top;align=center;html=1;fontSize=12;fontStyle=0;aspect=fixed;pointerEvents=1;shape=mxgraph.aws4.peering;" vertex="1" parent="3f8T3pzvuwBVUEeWGXju-63">
          <mxGeometry x="-20" y="288.5" width="38" height="38" as="geometry" />
        </mxCell>
        <mxCell id="3f8T3pzvuwBVUEeWGXju-90" style="edgeStyle=orthogonalEdgeStyle;rounded=0;orthogonalLoop=1;jettySize=auto;html=1;entryX=0;entryY=0.5;entryDx=0;entryDy=0;fillColor=#008a00;strokeColor=#005700;" edge="1" parent="3f8T3pzvuwBVUEeWGXju-63" source="3f8T3pzvuwBVUEeWGXju-70" target="3f8T3pzvuwBVUEeWGXju-76">
          <mxGeometry relative="1" as="geometry">
            <Array as="points">
              <mxPoint x="20" y="308" />
              <mxPoint x="20" y="78" />
            </Array>
          </mxGeometry>
        </mxCell>
        <mxCell id="3f8T3pzvuwBVUEeWGXju-107" style="edgeStyle=orthogonalEdgeStyle;rounded=0;orthogonalLoop=1;jettySize=auto;html=1;fillColor=#008a00;strokeColor=#005700;" edge="1" parent="3f8T3pzvuwBVUEeWGXju-63" source="3f8T3pzvuwBVUEeWGXju-70" target="3f8T3pzvuwBVUEeWGXju-98">
          <mxGeometry relative="1" as="geometry" />
        </mxCell>
        <mxCell id="3f8T3pzvuwBVUEeWGXju-112" style="edgeStyle=orthogonalEdgeStyle;rounded=0;orthogonalLoop=1;jettySize=auto;html=1;fillColor=#008a00;strokeColor=#005700;" edge="1" parent="3f8T3pzvuwBVUEeWGXju-63" source="3f8T3pzvuwBVUEeWGXju-78" target="3f8T3pzvuwBVUEeWGXju-98">
          <mxGeometry relative="1" as="geometry" />
        </mxCell>
        <mxCell id="3f8T3pzvuwBVUEeWGXju-122" style="edgeStyle=orthogonalEdgeStyle;rounded=0;orthogonalLoop=1;jettySize=auto;html=1;" edge="1" parent="3f8T3pzvuwBVUEeWGXju-63" source="3f8T3pzvuwBVUEeWGXju-117" target="3f8T3pzvuwBVUEeWGXju-119">
          <mxGeometry relative="1" as="geometry" />
        </mxCell>
        <mxCell id="3f8T3pzvuwBVUEeWGXju-117" value="" style="sketch=0;points=[[0,0,0],[0.25,0,0],[0.5,0,0],[0.75,0,0],[1,0,0],[0,1,0],[0.25,1,0],[0.5,1,0],[0.75,1,0],[1,1,0],[0,0.25,0],[0,0.5,0],[0,0.75,0],[1,0.25,0],[1,0.5,0],[1,0.75,0]];points=[[0,0,0],[0.25,0,0],[0.5,0,0],[0.75,0,0],[1,0,0],[0,1,0],[0.25,1,0],[0.5,1,0],[0.75,1,0],[1,1,0],[0,0.25,0],[0,0.5,0],[0,0.75,0],[1,0.25,0],[1,0.5,0],[1,0.75,0]];outlineConnect=0;fontColor=#232F3E;fillColor=#E7157B;strokeColor=#ffffff;dashed=0;verticalLabelPosition=bottom;verticalAlign=top;align=center;html=1;fontSize=12;fontStyle=0;aspect=fixed;shape=mxgraph.aws4.resourceIcon;resIcon=mxgraph.aws4.cloudwatch_2;" vertex="1" parent="3f8T3pzvuwBVUEeWGXju-63">
          <mxGeometry x="298" y="13.5" width="52" height="52" as="geometry" />
        </mxCell>
        <mxCell id="3f8T3pzvuwBVUEeWGXju-123" style="edgeStyle=orthogonalEdgeStyle;rounded=0;orthogonalLoop=1;jettySize=auto;html=1;fillColor=#008a00;strokeColor=#005700;" edge="1" parent="3f8T3pzvuwBVUEeWGXju-63" source="3f8T3pzvuwBVUEeWGXju-119" target="3f8T3pzvuwBVUEeWGXju-76">
          <mxGeometry relative="1" as="geometry" />
        </mxCell>
        <mxCell id="3f8T3pzvuwBVUEeWGXju-124" style="edgeStyle=orthogonalEdgeStyle;rounded=0;orthogonalLoop=1;jettySize=auto;html=1;fillColor=#008a00;strokeColor=#005700;" edge="1" parent="3f8T3pzvuwBVUEeWGXju-63" source="3f8T3pzvuwBVUEeWGXju-119" target="3f8T3pzvuwBVUEeWGXju-98">
          <mxGeometry relative="1" as="geometry">
            <Array as="points">
              <mxPoint x="219" y="123" />
            </Array>
          </mxGeometry>
        </mxCell>
        <mxCell id="3f8T3pzvuwBVUEeWGXju-119" value="" style="sketch=0;outlineConnect=0;fontColor=#232F3E;gradientColor=none;fillColor=#E7157B;strokeColor=none;dashed=0;verticalLabelPosition=bottom;verticalAlign=top;align=center;html=1;fontSize=12;fontStyle=0;aspect=fixed;pointerEvents=1;shape=mxgraph.aws4.cloudwatch_logs;" vertex="1" parent="3f8T3pzvuwBVUEeWGXju-63">
          <mxGeometry x="298.9000000000001" y="103.5" width="51.1" height="38" as="geometry" />
        </mxCell>
        <mxCell id="3f8T3pzvuwBVUEeWGXju-178" style="edgeStyle=orthogonalEdgeStyle;rounded=0;orthogonalLoop=1;jettySize=auto;html=1;fillColor=#f8cecc;strokeColor=#b85450;" edge="1" parent="3f8T3pzvuwBVUEeWGXju-63" source="3f8T3pzvuwBVUEeWGXju-136" target="3f8T3pzvuwBVUEeWGXju-86">
          <mxGeometry relative="1" as="geometry" />
        </mxCell>
        <mxCell id="3f8T3pzvuwBVUEeWGXju-180" style="edgeStyle=orthogonalEdgeStyle;rounded=0;orthogonalLoop=1;jettySize=auto;html=1;exitX=0.75;exitY=0;exitDx=0;exitDy=0;entryX=1;entryY=0.75;entryDx=0;entryDy=0;fillColor=#f8cecc;strokeColor=#b85450;" edge="1" parent="3f8T3pzvuwBVUEeWGXju-63" source="3f8T3pzvuwBVUEeWGXju-136" target="3f8T3pzvuwBVUEeWGXju-76">
          <mxGeometry relative="1" as="geometry" />
        </mxCell>
        <mxCell id="3f8T3pzvuwBVUEeWGXju-182" style="edgeStyle=orthogonalEdgeStyle;rounded=0;orthogonalLoop=1;jettySize=auto;html=1;exitX=1;exitY=0;exitDx=0;exitDy=0;fillColor=#f8cecc;strokeColor=#b85450;" edge="1" parent="3f8T3pzvuwBVUEeWGXju-63" source="3f8T3pzvuwBVUEeWGXju-136" target="3f8T3pzvuwBVUEeWGXju-97">
          <mxGeometry relative="1" as="geometry">
            <Array as="points">
              <mxPoint x="220" y="368" />
              <mxPoint x="299" y="368" />
            </Array>
          </mxGeometry>
        </mxCell>
        <mxCell id="3f8T3pzvuwBVUEeWGXju-208" style="edgeStyle=orthogonalEdgeStyle;rounded=0;orthogonalLoop=1;jettySize=auto;html=1;exitX=0.75;exitY=0;exitDx=0;exitDy=0;fillColor=#f8cecc;strokeColor=#b85450;" edge="1" parent="3f8T3pzvuwBVUEeWGXju-63" source="3f8T3pzvuwBVUEeWGXju-136" target="3f8T3pzvuwBVUEeWGXju-98">
          <mxGeometry relative="1" as="geometry">
            <Array as="points">
              <mxPoint x="175" y="285" />
              <mxPoint x="199" y="285" />
            </Array>
          </mxGeometry>
        </mxCell>
        <mxCell id="3f8T3pzvuwBVUEeWGXju-209" style="edgeStyle=orthogonalEdgeStyle;rounded=0;orthogonalLoop=1;jettySize=auto;html=1;exitX=0.75;exitY=0;exitDx=0;exitDy=0;entryX=1;entryY=1;entryDx=0;entryDy=0;fillColor=#f8cecc;strokeColor=#b85450;" edge="1" parent="3f8T3pzvuwBVUEeWGXju-63" source="3f8T3pzvuwBVUEeWGXju-136" target="3f8T3pzvuwBVUEeWGXju-77">
          <mxGeometry relative="1" as="geometry">
            <Array as="points">
              <mxPoint x="175" y="282" />
            </Array>
          </mxGeometry>
        </mxCell>
        <mxCell id="3f8T3pzvuwBVUEeWGXju-211" style="edgeStyle=orthogonalEdgeStyle;rounded=0;orthogonalLoop=1;jettySize=auto;html=1;exitX=0.75;exitY=0;exitDx=0;exitDy=0;fillColor=#008a00;strokeColor=#005700;" edge="1" parent="3f8T3pzvuwBVUEeWGXju-63" source="3f8T3pzvuwBVUEeWGXju-136" target="3f8T3pzvuwBVUEeWGXju-98">
          <mxGeometry relative="1" as="geometry">
            <Array as="points">
              <mxPoint x="214" y="485" />
            </Array>
          </mxGeometry>
        </mxCell>
        <mxCell id="3f8T3pzvuwBVUEeWGXju-136" value="Auto Scaling group" style="points=[[0,0],[0.25,0],[0.5,0],[0.75,0],[1,0],[1,0.25],[1,0.5],[1,0.75],[1,1],[0.75,1],[0.5,1],[0.25,1],[0,1],[0,0.75],[0,0.5],[0,0.25]];outlineConnect=0;gradientColor=none;html=1;whiteSpace=wrap;fontSize=12;fontStyle=0;container=1;pointerEvents=0;collapsible=0;recursiveResize=0;shape=mxgraph.aws4.groupCenter;grIcon=mxgraph.aws4.group_auto_scaling_group;grStroke=1;strokeColor=#D86613;fillColor=none;verticalAlign=top;align=center;fontColor=#D86613;dashed=1;spacingTop=25;" vertex="1" parent="3f8T3pzvuwBVUEeWGXju-63">
          <mxGeometry x="40" y="484.5" width="180" height="156.5" as="geometry" />
        </mxCell>
        <mxCell id="3f8T3pzvuwBVUEeWGXju-138" value="DevOps" style="sketch=0;outlineConnect=0;fontColor=#232F3E;gradientColor=none;fillColor=#ED7100;strokeColor=none;dashed=0;verticalLabelPosition=bottom;verticalAlign=top;align=center;html=1;fontSize=12;fontStyle=0;aspect=fixed;pointerEvents=1;shape=mxgraph.aws4.instances;" vertex="1" parent="3f8T3pzvuwBVUEeWGXju-136">
          <mxGeometry x="65" y="54.25" width="48" height="48" as="geometry" />
        </mxCell>
        <mxCell id="3f8T3pzvuwBVUEeWGXju-184" style="edgeStyle=orthogonalEdgeStyle;rounded=0;orthogonalLoop=1;jettySize=auto;html=1;exitX=0;exitY=0;exitDx=0;exitDy=0;entryX=0.628;entryY=0.842;entryDx=0;entryDy=0;entryPerimeter=0;fillColor=#f8cecc;strokeColor=#b85450;" edge="1" parent="3f8T3pzvuwBVUEeWGXju-63" source="3f8T3pzvuwBVUEeWGXju-136" target="3f8T3pzvuwBVUEeWGXju-70">
          <mxGeometry relative="1" as="geometry">
            <Array as="points">
              <mxPoint x="40" y="465" />
              <mxPoint x="19" y="465" />
              <mxPoint x="19" y="321" />
            </Array>
          </mxGeometry>
        </mxCell>
        <mxCell id="3f8T3pzvuwBVUEeWGXju-72" style="edgeStyle=orthogonalEdgeStyle;rounded=0;orthogonalLoop=1;jettySize=auto;html=1;fillColor=#60a917;strokeColor=#2D7600;" edge="1" parent="jZVaUwOg5UY3L9NAnvdq-71" source="3f8T3pzvuwBVUEeWGXju-65" target="3f8T3pzvuwBVUEeWGXju-70">
          <mxGeometry relative="1" as="geometry">
            <Array as="points">
              <mxPoint x="686" y="610" />
            </Array>
          </mxGeometry>
        </mxCell>
        <mxCell id="3f8T3pzvuwBVUEeWGXju-166" style="edgeStyle=orthogonalEdgeStyle;rounded=0;orthogonalLoop=1;jettySize=auto;html=1;fillColor=#dae8fc;strokeColor=#6c8ebf;" edge="1" parent="jZVaUwOg5UY3L9NAnvdq-71" source="3f8T3pzvuwBVUEeWGXju-148" target="3f8T3pzvuwBVUEeWGXju-157">
          <mxGeometry relative="1" as="geometry" />
        </mxCell>
        <mxCell id="3f8T3pzvuwBVUEeWGXju-148" value="" style="sketch=0;points=[[0,0,0],[0.25,0,0],[0.5,0,0],[0.75,0,0],[1,0,0],[0,1,0],[0.25,1,0],[0.5,1,0],[0.75,1,0],[1,1,0],[0,0.25,0],[0,0.5,0],[0,0.75,0],[1,0.25,0],[1,0.5,0],[1,0.75,0]];outlineConnect=0;fontColor=#232F3E;fillColor=#8C4FFF;strokeColor=#ffffff;dashed=0;verticalLabelPosition=bottom;verticalAlign=top;align=center;html=1;fontSize=12;fontStyle=0;aspect=fixed;shape=mxgraph.aws4.resourceIcon;resIcon=mxgraph.aws4.client_vpn;" vertex="1" parent="jZVaUwOg5UY3L9NAnvdq-71">
          <mxGeometry x="1227" y="548" width="78" height="78" as="geometry" />
        </mxCell>
        <mxCell id="3f8T3pzvuwBVUEeWGXju-154" value="" style="sketch=0;outlineConnect=0;fontColor=#232F3E;gradientColor=none;fillColor=#DD344C;strokeColor=none;dashed=0;verticalLabelPosition=bottom;verticalAlign=top;align=center;html=1;fontSize=12;fontStyle=0;aspect=fixed;pointerEvents=1;shape=mxgraph.aws4.waf_rule;" vertex="1" parent="jZVaUwOg5UY3L9NAnvdq-71">
          <mxGeometry x="1177" y="710" width="50" height="50" as="geometry" />
        </mxCell>
        <mxCell id="3f8T3pzvuwBVUEeWGXju-155" value="" style="sketch=0;points=[[0,0,0],[0.25,0,0],[0.5,0,0],[0.75,0,0],[1,0,0],[0,1,0],[0.25,1,0],[0.5,1,0],[0.75,1,0],[1,1,0],[0,0.25,0],[0,0.5,0],[0,0.75,0],[1,0.25,0],[1,0.5,0],[1,0.75,0]];outlineConnect=0;fontColor=#232F3E;fillColor=#DD344C;strokeColor=#ffffff;dashed=0;verticalLabelPosition=bottom;verticalAlign=top;align=center;html=1;fontSize=12;fontStyle=0;aspect=fixed;shape=mxgraph.aws4.resourceIcon;resIcon=mxgraph.aws4.single_sign_on;" vertex="1" parent="jZVaUwOg5UY3L9NAnvdq-71">
          <mxGeometry x="1170" y="416" width="57" height="57" as="geometry" />
        </mxCell>
        <mxCell id="3f8T3pzvuwBVUEeWGXju-169" style="edgeStyle=orthogonalEdgeStyle;rounded=0;orthogonalLoop=1;jettySize=auto;html=1;entryX=0.75;entryY=0;entryDx=0;entryDy=0;fillColor=#dae8fc;strokeColor=#6c8ebf;" edge="1" parent="jZVaUwOg5UY3L9NAnvdq-71" source="3f8T3pzvuwBVUEeWGXju-156" target="3f8T3pzvuwBVUEeWGXju-167">
          <mxGeometry relative="1" as="geometry" />
        </mxCell>
        <mxCell id="3f8T3pzvuwBVUEeWGXju-156" value="" style="sketch=0;points=[[0,0,0],[0.25,0,0],[0.5,0,0],[0.75,0,0],[1,0,0],[0,1,0],[0.25,1,0],[0.5,1,0],[0.75,1,0],[1,1,0],[0,0.25,0],[0,0.5,0],[0,0.75,0],[1,0.25,0],[1,0.5,0],[1,0.75,0]];outlineConnect=0;fontColor=#232F3E;fillColor=#DD344C;strokeColor=#ffffff;dashed=0;verticalLabelPosition=bottom;verticalAlign=top;align=center;html=1;fontSize=12;fontStyle=0;aspect=fixed;shape=mxgraph.aws4.resourceIcon;resIcon=mxgraph.aws4.certificate_manager_3;" vertex="1" parent="jZVaUwOg5UY3L9NAnvdq-71">
          <mxGeometry x="1268" y="410" width="63" height="63" as="geometry" />
        </mxCell>
        <mxCell id="3f8T3pzvuwBVUEeWGXju-205" style="edgeStyle=orthogonalEdgeStyle;rounded=0;orthogonalLoop=1;jettySize=auto;html=1;entryX=1;entryY=0.5;entryDx=0;entryDy=0;fillColor=#dae8fc;strokeColor=#6c8ebf;" edge="1" parent="jZVaUwOg5UY3L9NAnvdq-71" source="3f8T3pzvuwBVUEeWGXju-157" target="3f8T3pzvuwBVUEeWGXju-136">
          <mxGeometry relative="1" as="geometry">
            <Array as="points">
              <mxPoint x="1016" y="463" />
              <mxPoint x="1016" y="611" />
            </Array>
          </mxGeometry>
        </mxCell>
        <mxCell id="3f8T3pzvuwBVUEeWGXju-206" style="edgeStyle=orthogonalEdgeStyle;rounded=0;orthogonalLoop=1;jettySize=auto;html=1;fillColor=#dae8fc;strokeColor=#6c8ebf;" edge="1" parent="jZVaUwOg5UY3L9NAnvdq-71" source="3f8T3pzvuwBVUEeWGXju-157" target="3f8T3pzvuwBVUEeWGXju-97">
          <mxGeometry relative="1" as="geometry">
            <Array as="points">
              <mxPoint x="1016" y="463" />
            </Array>
          </mxGeometry>
        </mxCell>
        <mxCell id="3f8T3pzvuwBVUEeWGXju-207" style="edgeStyle=orthogonalEdgeStyle;rounded=0;orthogonalLoop=1;jettySize=auto;html=1;entryX=1;entryY=0.75;entryDx=0;entryDy=0;fillColor=#dae8fc;strokeColor=#6c8ebf;" edge="1" parent="jZVaUwOg5UY3L9NAnvdq-71" source="3f8T3pzvuwBVUEeWGXju-157" target="3f8T3pzvuwBVUEeWGXju-86">
          <mxGeometry relative="1" as="geometry">
            <Array as="points">
              <mxPoint x="1076" y="463" />
              <mxPoint x="1076" y="463" />
            </Array>
          </mxGeometry>
        </mxCell>
        <mxCell id="3f8T3pzvuwBVUEeWGXju-157" value="" style="sketch=0;outlineConnect=0;fontColor=#232F3E;gradientColor=none;fillColor=#8C4FFF;strokeColor=none;dashed=0;verticalLabelPosition=bottom;verticalAlign=top;align=center;html=1;fontSize=12;fontStyle=0;aspect=fixed;pointerEvents=1;shape=mxgraph.aws4.route_table;" vertex="1" parent="jZVaUwOg5UY3L9NAnvdq-71">
          <mxGeometry x="1105.83" y="443" width="58.5" height="57" as="geometry" />
        </mxCell>
        <mxCell id="3f8T3pzvuwBVUEeWGXju-168" style="edgeStyle=orthogonalEdgeStyle;rounded=0;orthogonalLoop=1;jettySize=auto;html=1;entryX=0.082;entryY=0.008;entryDx=0;entryDy=0;entryPerimeter=0;fillColor=#dae8fc;strokeColor=#6c8ebf;" edge="1" parent="jZVaUwOg5UY3L9NAnvdq-71" source="3f8T3pzvuwBVUEeWGXju-155" target="3f8T3pzvuwBVUEeWGXju-167">
          <mxGeometry relative="1" as="geometry" />
        </mxCell>
        <mxCell id="3f8T3pzvuwBVUEeWGXju-170" style="edgeStyle=orthogonalEdgeStyle;rounded=0;orthogonalLoop=1;jettySize=auto;html=1;entryX=0.104;entryY=1.006;entryDx=0;entryDy=0;entryPerimeter=0;fillColor=#dae8fc;strokeColor=#6c8ebf;" edge="1" parent="jZVaUwOg5UY3L9NAnvdq-71" source="3f8T3pzvuwBVUEeWGXju-154" target="3f8T3pzvuwBVUEeWGXju-167">
          <mxGeometry relative="1" as="geometry" />
        </mxCell>
        <mxCell id="3f8T3pzvuwBVUEeWGXju-185" style="edgeStyle=orthogonalEdgeStyle;rounded=0;orthogonalLoop=1;jettySize=auto;html=1;entryX=0.861;entryY=-0.051;entryDx=0;entryDy=0;entryPerimeter=0;fillColor=#f8cecc;strokeColor=#b85450;" edge="1" parent="jZVaUwOg5UY3L9NAnvdq-71" source="3f8T3pzvuwBVUEeWGXju-70" target="3f8T3pzvuwBVUEeWGXju-65">
          <mxGeometry relative="1" as="geometry">
            <Array as="points">
              <mxPoint x="657" y="356" />
              <mxPoint x="657" y="483" />
              <mxPoint x="656" y="590" />
            </Array>
          </mxGeometry>
        </mxCell>
        <mxCell id="-QjtrjUzRDEMRZ5MF8oH-47" value="Basic Microservice Architecture with Monitoring setup" style="text;html=1;resizable=0;points=[];autosize=1;align=left;verticalAlign=top;spacingTop=-4;fontSize=30;fontStyle=1;labelBackgroundColor=none;" parent="1" vertex="1">
          <mxGeometry x="36.5" y="26.5" width="800" height="40" as="geometry" />
        </mxCell>
        <mxCell id="-QjtrjUzRDEMRZ5MF8oH-48" value="Excluded Elasticsearch service instead of ELK stack and Direct Connect service to On prem" style="text;html=1;resizable=0;points=[];autosize=1;align=left;verticalAlign=top;spacingTop=-4;fontSize=16;labelBackgroundColor=none;" parent="1" vertex="1">
          <mxGeometry x="36.5" y="76.5" width="680" height="30" as="geometry" />
        </mxCell>
        <mxCell id="SCVMTBWpLvtzJIhz15lM-1" value="" style="line;strokeWidth=2;html=1;fontSize=14;labelBackgroundColor=none;" parent="1" vertex="1">
          <mxGeometry x="32.5" y="101.5" width="1060" height="10" as="geometry" />
        </mxCell>
        <mxCell id="jZVaUwOg5UY3L9NAnvdq-92" value="User" style="outlineConnect=0;fontColor=#232F3E;gradientColor=none;fillColor=#232F3E;strokeColor=none;dashed=0;verticalLabelPosition=bottom;verticalAlign=top;align=center;html=1;fontSize=12;fontStyle=0;aspect=fixed;pointerEvents=1;shape=mxgraph.aws4.user;labelBackgroundColor=none;" parent="1" vertex="1">
          <mxGeometry x="716.0000000000002" y="160" width="78" height="78" as="geometry" />
        </mxCell>
        <mxCell id="3f8T3pzvuwBVUEeWGXju-53" style="edgeStyle=orthogonalEdgeStyle;rounded=0;orthogonalLoop=1;jettySize=auto;html=1;" edge="1" parent="1" source="3f8T3pzvuwBVUEeWGXju-52" target="3f8T3pzvuwBVUEeWGXju-43">
          <mxGeometry relative="1" as="geometry" />
        </mxCell>
        <mxCell id="3f8T3pzvuwBVUEeWGXju-52" value="" style="sketch=0;points=[[0,0,0],[0.25,0,0],[0.5,0,0],[0.75,0,0],[1,0,0],[0,1,0],[0.25,1,0],[0.5,1,0],[0.75,1,0],[1,1,0],[0,0.25,0],[0,0.5,0],[0,0.75,0],[1,0.25,0],[1,0.5,0],[1,0.75,0]];outlineConnect=0;fontColor=#232F3E;fillColor=#DD344C;strokeColor=#ffffff;dashed=0;verticalLabelPosition=bottom;verticalAlign=top;align=center;html=1;fontSize=12;fontStyle=0;aspect=fixed;shape=mxgraph.aws4.resourceIcon;resIcon=mxgraph.aws4.waf;" vertex="1" parent="1">
          <mxGeometry x="319" y="170" width="60" height="60" as="geometry" />
        </mxCell>
        <mxCell id="3f8T3pzvuwBVUEeWGXju-129" value="" style="edgeStyle=orthogonalEdgeStyle;rounded=0;orthogonalLoop=1;jettySize=auto;html=1;" edge="1" parent="1" source="3f8T3pzvuwBVUEeWGXju-125" target="3f8T3pzvuwBVUEeWGXju-128">
          <mxGeometry relative="1" as="geometry" />
        </mxCell>
        <mxCell id="3f8T3pzvuwBVUEeWGXju-125" value="" style="sketch=0;points=[[0,0,0],[0.25,0,0],[0.5,0,0],[0.75,0,0],[1,0,0],[0,1,0],[0.25,1,0],[0.5,1,0],[0.75,1,0],[1,1,0],[0,0.25,0],[0,0.5,0],[0,0.75,0],[1,0.25,0],[1,0.5,0],[1,0.75,0]];outlineConnect=0;fontColor=#232F3E;fillColor=#8C4FFF;strokeColor=#ffffff;dashed=0;verticalLabelPosition=bottom;verticalAlign=top;align=center;html=1;fontSize=12;fontStyle=0;aspect=fixed;shape=mxgraph.aws4.resourceIcon;resIcon=mxgraph.aws4.route_53;" vertex="1" parent="1">
          <mxGeometry x="549" y="167.5" width="64.5" height="64.5" as="geometry" />
        </mxCell>
        <mxCell id="3f8T3pzvuwBVUEeWGXju-130" value="" style="edgeStyle=orthogonalEdgeStyle;rounded=0;orthogonalLoop=1;jettySize=auto;html=1;" edge="1" parent="1" source="3f8T3pzvuwBVUEeWGXju-128" target="3f8T3pzvuwBVUEeWGXju-52">
          <mxGeometry relative="1" as="geometry" />
        </mxCell>
        <mxCell id="3f8T3pzvuwBVUEeWGXju-128" value="" style="sketch=0;points=[[0,0,0],[0.25,0,0],[0.5,0,0],[0.75,0,0],[1,0,0],[0,1,0],[0.25,1,0],[0.5,1,0],[0.75,1,0],[1,1,0],[0,0.25,0],[0,0.5,0],[0,0.75,0],[1,0.25,0],[1,0.5,0],[1,0.75,0]];outlineConnect=0;fontColor=#232F3E;fillColor=#8C4FFF;strokeColor=#ffffff;dashed=0;verticalLabelPosition=bottom;verticalAlign=top;align=center;html=1;fontSize=12;fontStyle=0;aspect=fixed;shape=mxgraph.aws4.resourceIcon;resIcon=mxgraph.aws4.api_gateway;" vertex="1" parent="1">
          <mxGeometry x="426" y="168" width="62" height="62" as="geometry" />
        </mxCell>
        <mxCell id="3f8T3pzvuwBVUEeWGXju-131" style="edgeStyle=orthogonalEdgeStyle;rounded=0;orthogonalLoop=1;jettySize=auto;html=1;entryX=1;entryY=0.5;entryDx=0;entryDy=0;entryPerimeter=0;" edge="1" parent="1" source="jZVaUwOg5UY3L9NAnvdq-92" target="3f8T3pzvuwBVUEeWGXju-125">
          <mxGeometry relative="1" as="geometry" />
        </mxCell>
        <mxCell id="3f8T3pzvuwBVUEeWGXju-153" style="edgeStyle=orthogonalEdgeStyle;rounded=0;orthogonalLoop=1;jettySize=auto;html=1;fillColor=#dae8fc;strokeColor=#6c8ebf;" edge="1" parent="1" source="3f8T3pzvuwBVUEeWGXju-149" target="3f8T3pzvuwBVUEeWGXju-148">
          <mxGeometry relative="1" as="geometry" />
        </mxCell>
        <mxCell id="3f8T3pzvuwBVUEeWGXju-149" value="" style="sketch=0;points=[[0,0,0],[0.25,0,0],[0.5,0,0],[0.75,0,0],[1,0,0],[0,1,0],[0.25,1,0],[0.5,1,0],[0.75,1,0],[1,1,0],[0,0.25,0],[0,0.5,0],[0,0.75,0],[1,0.25,0],[1,0.5,0],[1,0.75,0]];outlineConnect=0;fontColor=#232F3E;fillColor=#8C4FFF;strokeColor=#ffffff;dashed=0;verticalLabelPosition=bottom;verticalAlign=top;align=center;html=1;fontSize=12;fontStyle=0;aspect=fixed;shape=mxgraph.aws4.resourceIcon;resIcon=mxgraph.aws4.client_vpn;" vertex="1" parent="1">
          <mxGeometry x="1516" y="824" width="78" height="78" as="geometry" />
        </mxCell>
        <mxCell id="3f8T3pzvuwBVUEeWGXju-199" style="edgeStyle=orthogonalEdgeStyle;rounded=0;orthogonalLoop=1;jettySize=auto;html=1;fillColor=#dae8fc;strokeColor=#6c8ebf;" edge="1" parent="1" source="3f8T3pzvuwBVUEeWGXju-150" target="3f8T3pzvuwBVUEeWGXju-197">
          <mxGeometry relative="1" as="geometry" />
        </mxCell>
        <mxCell id="3f8T3pzvuwBVUEeWGXju-150" value="employees" style="sketch=0;outlineConnect=0;fontColor=#232F3E;gradientColor=none;strokeColor=#232F3E;fillColor=#ffffff;dashed=0;verticalLabelPosition=bottom;verticalAlign=top;align=center;html=1;fontSize=12;fontStyle=0;aspect=fixed;shape=mxgraph.aws4.resourceIcon;resIcon=mxgraph.aws4.users;" vertex="1" parent="1">
          <mxGeometry x="1515" y="550" width="79" height="79" as="geometry" />
        </mxCell>
        <mxCell id="3f8T3pzvuwBVUEeWGXju-200" style="edgeStyle=orthogonalEdgeStyle;rounded=0;orthogonalLoop=1;jettySize=auto;html=1;fillColor=#dae8fc;strokeColor=#6c8ebf;" edge="1" parent="1" source="3f8T3pzvuwBVUEeWGXju-197" target="3f8T3pzvuwBVUEeWGXju-149">
          <mxGeometry relative="1" as="geometry" />
        </mxCell>
        <mxCell id="3f8T3pzvuwBVUEeWGXju-197" value="Workstation/Laptop&lt;br&gt;" style="sketch=0;outlineConnect=0;fontColor=#232F3E;gradientColor=none;fillColor=#232F3D;strokeColor=none;dashed=0;verticalLabelPosition=bottom;verticalAlign=top;align=center;html=1;fontSize=12;fontStyle=0;aspect=fixed;pointerEvents=1;shape=mxgraph.aws4.client;" vertex="1" parent="1">
          <mxGeometry x="1515" y="700" width="71.84" height="70" as="geometry" />
        </mxCell>
        <mxCell id="3f8T3pzvuwBVUEeWGXju-218" value="" style="edgeStyle=none;orthogonalLoop=1;jettySize=auto;html=1;rounded=0;strokeColor=#009900;" edge="1" parent="1">
          <mxGeometry width="100" relative="1" as="geometry">
            <mxPoint x="1136" y="111.5" as="sourcePoint" />
            <mxPoint x="1236" y="111.5" as="targetPoint" />
            <Array as="points" />
          </mxGeometry>
        </mxCell>
        <mxCell id="3f8T3pzvuwBVUEeWGXju-219" value="Logs &amp;amp; data monitoring flow" style="text;html=1;align=center;verticalAlign=middle;resizable=0;points=[];autosize=1;strokeColor=none;fillColor=none;" vertex="1" parent="1">
          <mxGeometry x="1236" y="96.5" width="170" height="30" as="geometry" />
        </mxCell>
        <mxCell id="3f8T3pzvuwBVUEeWGXju-220" value="" style="edgeStyle=none;orthogonalLoop=1;jettySize=auto;html=1;rounded=0;strokeColor=#EA6B66;" edge="1" parent="1">
          <mxGeometry width="100" relative="1" as="geometry">
            <mxPoint x="1136" y="151.5" as="sourcePoint" />
            <mxPoint x="1236" y="151.5" as="targetPoint" />
            <Array as="points" />
          </mxGeometry>
        </mxCell>
        <mxCell id="3f8T3pzvuwBVUEeWGXju-221" value="" style="edgeStyle=none;orthogonalLoop=1;jettySize=auto;html=1;rounded=0;strokeColor=#7EA6E0;shadow=0;" edge="1" parent="1">
          <mxGeometry width="100" relative="1" as="geometry">
            <mxPoint x="1136" y="194.5" as="sourcePoint" />
            <mxPoint x="1236" y="194.5" as="targetPoint" />
            <Array as="points" />
          </mxGeometry>
        </mxCell>
        <mxCell id="3f8T3pzvuwBVUEeWGXju-222" value="DevOps Instance flow" style="text;html=1;align=center;verticalAlign=middle;resizable=0;points=[];autosize=1;strokeColor=none;fillColor=none;" vertex="1" parent="1">
          <mxGeometry x="1236" y="139.5" width="140" height="30" as="geometry" />
        </mxCell>
        <mxCell id="3f8T3pzvuwBVUEeWGXju-223" value="Employee accessed resources" style="text;html=1;align=center;verticalAlign=middle;resizable=0;points=[];autosize=1;strokeColor=none;fillColor=none;" vertex="1" parent="1">
          <mxGeometry x="1236" y="181.5" width="190" height="30" as="geometry" />
        </mxCell>
        <mxCell id="3f8T3pzvuwBVUEeWGXju-224" value="" style="edgeStyle=none;orthogonalLoop=1;jettySize=auto;html=1;rounded=0;strokeColor=#000000;shadow=0;" edge="1" parent="1">
          <mxGeometry width="100" relative="1" as="geometry">
            <mxPoint x="1136" y="241.5" as="sourcePoint" />
            <mxPoint x="1236" y="241.5" as="targetPoint" />
            <Array as="points" />
          </mxGeometry>
        </mxCell>
        <mxCell id="3f8T3pzvuwBVUEeWGXju-225" value="User access flow" style="text;html=1;align=center;verticalAlign=middle;resizable=0;points=[];autosize=1;strokeColor=none;fillColor=none;" vertex="1" parent="1">
          <mxGeometry x="1236" y="229.5" width="110" height="30" as="geometry" />
        </mxCell>
        <mxCell id="3f8T3pzvuwBVUEeWGXju-226" value="" style="whiteSpace=wrap;html=1;" vertex="1" parent="1">
          <mxGeometry x="1100" y="620" width="120" height="60" as="geometry" />
        </mxCell>
      </root>
    </mxGraphModel>
  </diagram>
</mxfile>
